<svg width="17" height="16" viewBox="0 0 17 16" fill="none" xmlns="http://www.w3.org/2000/svg">
<path d="M16.7398 2.09248C16.7398 1.53752 16.5193 1.00529 16.1269 0.612872C15.7345 0.220457 15.2023 0 14.6473 0L2.09248 0C1.53752 0 1.00529 0.220457 0.612872 0.612872C0.220457 1.00529 0 1.53752 0 2.09248L0 10.4624C0 11.0173 0.220457 11.5496 0.612872 11.942C1.00529 12.3344 1.53752 12.5549 2.09248 12.5549H12.1217C12.3992 12.5549 12.6652 12.6652 12.8614 12.8614L15.8463 15.8463C15.9194 15.9196 16.0126 15.9696 16.1141 15.9898C16.2156 16.0101 16.3209 15.9999 16.4165 15.9603C16.5122 15.9208 16.594 15.8538 16.6515 15.7677C16.709 15.6817 16.7398 15.5805 16.7398 15.477V2.09248ZM3.66183 3.13871H13.078C13.2167 3.13871 13.3498 3.19383 13.4479 3.29193C13.546 3.39003 13.6011 3.52309 13.6011 3.66183C13.6011 3.80057 13.546 3.93363 13.4479 4.03173C13.3498 4.12984 13.2167 4.18495 13.078 4.18495H3.66183C3.52309 4.18495 3.39003 4.12984 3.29193 4.03173C3.19383 3.93363 3.13871 3.80057 3.13871 3.66183C3.13871 3.52309 3.19383 3.39003 3.29193 3.29193C3.39003 3.19383 3.52309 3.13871 3.66183 3.13871ZM3.66183 5.75431H13.078C13.2167 5.75431 13.3498 5.80942 13.4479 5.90752C13.546 6.00563 13.6011 6.13869 13.6011 6.27743C13.6011 6.41617 13.546 6.54922 13.4479 6.64733C13.3498 6.74543 13.2167 6.80054 13.078 6.80054H3.66183C3.52309 6.80054 3.39003 6.74543 3.29193 6.64733C3.19383 6.54922 3.13871 6.41617 3.13871 6.27743C3.13871 6.13869 3.19383 6.00563 3.29193 5.90752C3.39003 5.80942 3.52309 5.75431 3.66183 5.75431ZM3.66183 8.3699H8.89302C9.03176 8.3699 9.16482 8.42501 9.26292 8.52312C9.36102 8.62122 9.41614 8.75428 9.41614 8.89302C9.41614 9.03176 9.36102 9.16482 9.26292 9.26292C9.16482 9.36102 9.03176 9.41614 8.89302 9.41614H3.66183C3.52309 9.41614 3.39003 9.36102 3.29193 9.26292C3.19383 9.16482 3.13871 9.03176 3.13871 8.89302C3.13871 8.75428 3.19383 8.62122 3.29193 8.52312C3.39003 8.42501 3.52309 8.3699 3.66183 8.3699Z" fill="#C5C5C5"/>
</svg>
