<svg width="49" height="49" viewBox="0 0 49 49" fill="none" xmlns="http://www.w3.org/2000/svg">
<circle cx="24.5" cy="24.5" r="24.5" fill="#4C4C4C"/>
<path d="M26.2339 25.4524L28.0659 23.6505L28.0891 23.624C28.1235 23.5778 28.1401 23.5208 28.1358 23.4634C28.1316 23.406 28.1068 23.3521 28.0659 23.3115L26.2339 21.5104L26.2086 21.4889C26.062 21.3789 25.846 21.4848 25.846 21.6799V22.5477L25.7544 22.5538C24.3028 22.6687 23.4526 23.5873 23.2497 25.2536C23.2237 25.4675 23.4689 25.6015 23.6278 25.4597C24.2108 24.9391 24.8133 24.6156 25.4386 24.486C25.5389 24.4653 25.6395 24.4494 25.7409 24.4384L25.846 24.429V25.2829L25.8481 25.3163C25.8725 25.5009 26.0962 25.5876 26.2339 25.4524ZM25.7841 22.96L26.2534 22.9286V22.1004L27.6573 23.4806L26.2534 24.8617V23.9829L25.701 24.0326H25.6978C25.004 24.1072 24.3493 24.385 23.7313 24.8482C23.8527 24.3027 24.06 23.8925 24.3326 23.5987C24.6707 23.2341 25.1433 23.0109 25.7841 22.9595V22.96ZM23.044 21.8518C22.7739 21.8518 22.5148 21.9591 22.3238 22.1501C22.1328 22.3412 22.0255 22.6002 22.0255 22.8703V26.1295C22.0255 26.3996 22.1328 26.6586 22.3238 26.8496C22.5148 27.0406 22.7739 27.1479 23.044 27.1479H26.3031C26.5733 27.1479 26.8323 27.0406 27.0233 26.8496C27.2143 26.6586 27.3216 26.3996 27.3216 26.1295V25.7221C27.3216 25.6681 27.3002 25.6162 27.262 25.578C27.2238 25.5398 27.1719 25.5184 27.1179 25.5184C27.0639 25.5184 27.0121 25.5398 26.9739 25.578C26.9357 25.6162 26.9142 25.6681 26.9142 25.7221V26.1295C26.9142 26.2915 26.8498 26.447 26.7352 26.5616C26.6206 26.6762 26.4652 26.7406 26.3031 26.7406H23.044C22.8819 26.7406 22.7265 26.6762 22.6119 26.5616C22.4973 26.447 22.4329 26.2915 22.4329 26.1295V22.8703C22.4329 22.7083 22.4973 22.5528 22.6119 22.4382C22.7265 22.3236 22.8819 22.2592 23.044 22.2592H24.2662C24.3202 22.2592 24.372 22.2378 24.4102 22.1996C24.4484 22.1614 24.4699 22.1096 24.4699 22.0555C24.4699 22.0015 24.4484 21.9497 24.4102 21.9115C24.372 21.8733 24.3202 21.8518 24.2662 21.8518H23.044Z" fill="white"/>
<path d="M26.2339 25.4524L28.0659 23.6505L28.0891 23.624C28.1235 23.5778 28.1401 23.5208 28.1358 23.4634C28.1316 23.406 28.1068 23.3521 28.0659 23.3115L26.2339 21.5104L26.2086 21.4889C26.062 21.3789 25.846 21.4848 25.846 21.6799V22.5477L25.7544 22.5538C24.3028 22.6687 23.4526 23.5873 23.2497 25.2536C23.2237 25.4675 23.4689 25.6015 23.6278 25.4597C24.2108 24.9391 24.8133 24.6156 25.4386 24.486C25.5389 24.4653 25.6395 24.4494 25.7409 24.4384L25.846 24.429V25.2829L25.8481 25.3163C25.8725 25.5009 26.0962 25.5876 26.2339 25.4524ZM25.7841 22.96L26.2534 22.9286V22.1004L27.6573 23.4806L26.2534 24.8617V23.9829L25.701 24.0326H25.6978C25.004 24.1072 24.3493 24.385 23.7313 24.8482C23.8527 24.3027 24.06 23.8925 24.3326 23.5987C24.6707 23.2341 25.1433 23.0109 25.7841 22.9595V22.96ZM23.044 21.8518C22.7739 21.8518 22.5148 21.9591 22.3238 22.1501C22.1328 22.3412 22.0255 22.6002 22.0255 22.8703V26.1295C22.0255 26.3996 22.1328 26.6586 22.3238 26.8496C22.5148 27.0406 22.7739 27.1479 23.044 27.1479H26.3031C26.5733 27.1479 26.8323 27.0406 27.0233 26.8496C27.2143 26.6586 27.3216 26.3996 27.3216 26.1295V25.7221C27.3216 25.6681 27.3002 25.6162 27.262 25.578C27.2238 25.5398 27.1719 25.5184 27.1179 25.5184C27.0639 25.5184 27.0121 25.5398 26.9739 25.578C26.9357 25.6162 26.9142 25.6681 26.9142 25.7221V26.1295C26.9142 26.2915 26.8498 26.447 26.7352 26.5616C26.6206 26.6762 26.4652 26.7406 26.3031 26.7406H23.044C22.8819 26.7406 22.7265 26.6762 22.6119 26.5616C22.4973 26.447 22.4329 26.2915 22.4329 26.1295V22.8703C22.4329 22.7083 22.4973 22.5528 22.6119 22.4382C22.7265 22.3236 22.8819 22.2592 23.044 22.2592H24.2662C24.3202 22.2592 24.372 22.2378 24.4102 22.1996C24.4484 22.1614 24.4699 22.1096 24.4699 22.0555C24.4699 22.0015 24.4484 21.9497 24.4102 21.9115C24.372 21.8733 24.3202 21.8518 24.2662 21.8518H23.044Z" stroke="white"/>
<path d="M24.5572 32C28.0354 30.8012 30.5146 28.0142 30.9035 24.4657C31.0114 22.9253 31.0023 21.3789 30.8762 19.8399C30.8595 19.5973 30.753 19.3696 30.5775 19.2013C30.4019 19.0331 30.17 18.9363 29.9269 18.9298C28.3534 18.8814 26.5246 18.6191 25.1115 17.2271C24.9638 17.0816 24.7648 17 24.5574 17C24.3501 17 24.151 17.0816 24.0034 17.2271C22.5899 18.6191 20.761 18.8814 19.1879 18.9298C18.9449 18.9363 18.7129 19.0331 18.5374 19.2013C18.3618 19.3696 18.2553 19.5973 18.2387 19.8399C18.1125 21.3789 18.1032 22.9253 18.211 24.4657C18.5998 28.0142 21.0791 30.8012 24.5572 32Z" stroke="white" stroke-width="0.7" stroke-linecap="round" stroke-linejoin="round"/>
</svg>
