<svg width="8" height="11" viewBox="0 0 8 11" fill="none" xmlns="http://www.w3.org/2000/svg">
<path d="M5.4983 2.19903C5.88409 1.78602 6.14503 1.2126 6.07361 0.640808C5.51782 0.660643 4.84421 0.967061 4.44527 1.38004C4.08764 1.74564 3.77454 2.32996 3.8581 2.89053C4.47829 2.93249 5.11187 2.61137 5.4983 2.19903ZM6.68194 6.14785C6.67009 4.86595 7.69685 4.25026 7.74233 4.22051C7.16508 3.35 6.26608 3.23089 5.94591 3.21745C5.18042 3.1371 4.45332 3.68104 4.06468 3.68104C3.67762 3.68104 3.07892 3.228 2.44404 3.24017C1.6094 3.25392 0.840347 3.73994 0.411685 4.51023C-0.455344 6.05983 0.18946 8.35534 1.03433 9.61228C1.44734 10.2276 1.9391 10.9179 2.58485 10.8929C3.2082 10.8679 3.44319 10.4783 4.19526 10.4783C4.94764 10.4783 5.15829 10.8929 5.81653 10.8804C6.4863 10.8679 6.91018 10.2532 7.31968 9.63598C7.79349 8.92235 7.98882 8.23145 8 8.19656C7.98562 8.18822 6.69569 7.68079 6.68194 6.14785Z" fill="white"/>
</svg>
