<svg width="118" height="28" viewBox="0 0 118 28" fill="none" xmlns="http://www.w3.org/2000/svg">
<g clip-path="url(#clip0_893_10977)">
<rect x="0.790527" y="1.07034" width="26.621" height="26.621" rx="5.43513" fill="#0066FF"/>
<path d="M14.094 7.68891C14.5002 7.68891 14.8294 7.35966 14.8294 6.95351C14.8294 6.54736 14.5002 6.21811 14.094 6.21811C13.6879 6.21811 13.3586 6.54736 13.3586 6.95351C13.3586 7.35966 13.6879 7.68891 14.094 7.68891Z" fill="white"/>
<path d="M19.9651 23.541C19.9681 23.5727 19.9609 23.6044 19.9444 23.6316C19.928 23.6588 19.9032 23.6799 19.8737 23.6919C19.8443 23.7039 19.8118 23.706 19.7811 23.698C19.7503 23.69 19.7229 23.6724 19.703 23.6476C15.9151 18.8264 12.7028 17.2718 8.54981 23.5201C8.52967 23.5513 8.49976 23.5751 8.46473 23.5876C8.42969 23.6001 8.39151 23.6007 8.35612 23.5892C8.32073 23.5777 8.29013 23.5549 8.26908 23.5242C8.24803 23.4935 8.23772 23.4568 8.23975 23.4196C8.23975 23.4196 9.16905 8.18938 9.35421 5.19888C9.3564 5.16723 9.36878 5.13714 9.38951 5.11313C9.41024 5.08912 9.4382 5.07247 9.46918 5.06569C9.50017 5.0589 9.53253 5.06233 9.5614 5.07548C9.59027 5.08863 9.6141 5.11078 9.62932 5.13861C10.1988 6.19804 11.6189 8.80687 12.5578 9.53441C13.2373 10.0584 14.3046 10.8331 15.6697 9.44707C16.861 8.23393 17.1851 7.35616 17.7563 5.5657C17.7651 5.53842 17.7829 5.51497 17.8069 5.49923C17.8308 5.48349 17.8595 5.4764 17.888 5.47915C17.9165 5.4819 17.9433 5.49433 17.9638 5.51436C17.9843 5.53438 17.9974 5.56082 18.0008 5.58928C18.3423 8.69071 19.7223 21.3925 19.9651 23.541Z" fill="white"/>
</g>
<path d="M37.5631 20.8809V8.40446H39.2668L44.3248 16.4973H43.3487L48.389 8.40446H50.0927V20.8809H47.6968V12.5396L48.1583 12.6816L44.6443 18.3252H43.0115L39.4976 12.6816L39.9767 12.5396V20.8809H37.5631ZM55.9779 21.0583C55.197 21.0583 54.4931 20.8631 53.866 20.4727C53.2389 20.0822 52.7479 19.5498 52.393 18.8754C52.038 18.201 51.8605 17.4438 51.8605 16.6037C51.8605 15.7519 52.038 14.9887 52.393 14.3143C52.7479 13.6399 53.2389 13.1075 53.866 12.7171C54.4931 12.3266 55.197 12.1314 55.9779 12.1314C56.5932 12.1314 57.1433 12.2556 57.6284 12.5041C58.1135 12.7526 58.498 13.1016 58.782 13.5512C59.0778 13.989 59.2375 14.4859 59.2612 15.042V18.13C59.2375 18.6979 59.0778 19.2008 58.782 19.6385C58.498 20.0763 58.1135 20.4253 57.6284 20.6856C57.1433 20.9341 56.5932 21.0583 55.9779 21.0583ZM56.4039 18.9109C57.0546 18.9109 57.5811 18.6979 57.9834 18.272C58.3856 17.8342 58.5868 17.2722 58.5868 16.586C58.5868 16.1364 58.4921 15.74 58.3028 15.3969C58.1254 15.042 57.871 14.7699 57.5397 14.5805C57.2202 14.3794 56.8416 14.2788 56.4039 14.2788C55.9779 14.2788 55.5993 14.3794 55.268 14.5805C54.9486 14.7699 54.6942 15.042 54.5049 15.3969C54.3274 15.74 54.2387 16.1364 54.2387 16.586C54.2387 17.0474 54.3274 17.4556 54.5049 17.8106C54.6942 18.1537 54.9486 18.4258 55.268 18.6269C55.5993 18.8162 55.9779 18.9109 56.4039 18.9109ZM58.4626 20.8809V18.5737L58.8352 16.4795L58.4626 14.4208V12.3089H60.7697V20.8809H58.4626ZM68.2927 20.8809L64.9739 16.4618L68.2749 12.3089H70.9548L67.0858 16.9942L67.1746 15.8584L71.1322 20.8809H68.2927ZM62.8265 20.8809V8.04951H65.1514V20.8809H62.8265ZM75.9038 21.0583C75.0046 21.0583 74.2059 20.869 73.5079 20.4904C72.8098 20.1 72.2537 19.5676 71.8396 18.8932C71.4374 18.2188 71.2362 17.4497 71.2362 16.586C71.2362 15.7341 71.4314 14.9769 71.8219 14.3143C72.2242 13.6399 72.7684 13.1075 73.4546 12.7171C74.1409 12.3148 74.904 12.1137 75.744 12.1137C76.5723 12.1137 77.2999 12.303 77.927 12.6816C78.5659 13.0484 79.0628 13.5571 79.4178 14.2079C79.7845 14.8468 79.9679 15.5744 79.9679 16.3908C79.9679 16.5446 79.9561 16.7043 79.9324 16.87C79.9206 17.0238 79.891 17.2012 79.8437 17.4024L72.6383 17.4201V15.6809L78.7611 15.6631L77.8205 16.3908C77.7968 15.882 77.7022 15.4561 77.5365 15.113C77.3827 14.7699 77.152 14.5096 76.8444 14.3321C76.5486 14.1428 76.1818 14.0481 75.744 14.0481C75.2826 14.0481 74.8803 14.1546 74.5372 14.3676C74.1941 14.5687 73.9279 14.8586 73.7386 15.2372C73.5611 15.604 73.4724 16.0417 73.4724 16.5505C73.4724 17.0711 73.567 17.5266 73.7563 17.917C73.9575 18.2957 74.2414 18.5914 74.6082 18.8044C74.975 19.0056 75.4009 19.1061 75.886 19.1061C76.3238 19.1061 76.7202 19.0351 77.0751 18.8932C77.43 18.7393 77.7377 18.5145 77.998 18.2188L79.3645 19.5853C78.9504 20.0704 78.4416 20.4372 77.8382 20.6856C77.2467 20.9341 76.6018 21.0583 75.9038 21.0583ZM85.2747 21.0583C84.269 21.0583 83.4053 20.8868 82.6835 20.5437C81.9737 20.2005 81.3288 19.6859 80.7491 18.9996L82.3463 17.4024C82.7131 17.8875 83.1391 18.2661 83.6242 18.5382C84.1093 18.7985 84.7008 18.9286 85.3989 18.9286C86.026 18.9286 86.5229 18.8044 86.8897 18.556C87.2683 18.3075 87.4576 17.9644 87.4576 17.5266C87.4576 17.148 87.3511 16.8404 87.1381 16.6037C86.9252 16.3671 86.6412 16.166 86.2863 16.0003C85.9431 15.8347 85.5586 15.6868 85.1327 15.5566C84.7186 15.4147 84.2986 15.2549 83.8726 15.0775C83.4585 14.9 83.074 14.6811 82.719 14.4208C82.3759 14.1487 82.0979 13.8056 81.8849 13.3915C81.6719 12.9655 81.5655 12.4331 81.5655 11.7942C81.5655 11.037 81.7489 10.3922 82.1156 9.85975C82.4824 9.32732 82.9853 8.91914 83.6242 8.63518C84.2631 8.35122 84.9848 8.20924 85.7893 8.20924C86.6412 8.20924 87.4103 8.36897 88.0965 8.68842C88.7827 9.00787 89.3447 9.42198 89.7825 9.93073L88.1852 11.528C87.8185 11.1257 87.4398 10.8299 87.0494 10.6406C86.6708 10.4513 86.2389 10.3567 85.7538 10.3567C85.1978 10.3567 84.76 10.4632 84.4405 10.6761C84.1211 10.8891 83.9614 11.1967 83.9614 11.599C83.9614 11.9421 84.0678 12.2201 84.2808 12.4331C84.4938 12.6461 84.7718 12.8295 85.1149 12.9833C85.4699 13.1371 85.8544 13.285 86.2685 13.427C86.6945 13.5689 87.1145 13.7287 87.5286 13.9061C87.9545 14.0836 88.339 14.3143 88.6822 14.5983C89.0371 14.8823 89.3211 15.249 89.534 15.6986C89.747 16.1364 89.8535 16.6806 89.8535 17.3314C89.8535 18.4909 89.4453 19.4019 88.6289 20.0645C87.8125 20.727 86.6945 21.0583 85.2747 21.0583ZM92.77 20.8809V8.74166H95.0949V20.8809H92.77ZM90.7646 14.3498V12.3089H97.1004V14.3498H90.7646ZM102.3 21.0583C101.4 21.0583 100.602 20.869 99.9036 20.4904C99.2056 20.1 98.6495 19.5676 98.2354 18.8932C97.8331 18.2188 97.632 17.4497 97.632 16.586C97.632 15.7341 97.8272 14.9769 98.2176 14.3143C98.6199 13.6399 99.1641 13.1075 99.8504 12.7171C100.537 12.3148 101.3 12.1137 102.14 12.1137C102.968 12.1137 103.696 12.303 104.323 12.6816C104.962 13.0484 105.459 13.5571 105.813 14.2079C106.18 14.8468 106.364 15.5744 106.364 16.3908C106.364 16.5446 106.352 16.7043 106.328 16.87C106.316 17.0238 106.287 17.2012 106.239 17.4024L99.034 17.4201V15.6809L105.157 15.6631L104.216 16.3908C104.193 15.882 104.098 15.4561 103.932 15.113C103.778 14.7699 103.548 14.5096 103.24 14.3321C102.944 14.1428 102.578 14.0481 102.14 14.0481C101.678 14.0481 101.276 14.1546 100.933 14.3676C100.59 14.5687 100.324 14.8586 100.134 15.2372C99.9569 15.604 99.8681 16.0417 99.8681 16.5505C99.8681 17.0711 99.9628 17.5266 100.152 17.917C100.353 18.2957 100.637 18.5914 101.004 18.8044C101.371 19.0056 101.797 19.1061 102.282 19.1061C102.72 19.1061 103.116 19.0351 103.471 18.8932C103.826 18.7393 104.133 18.5145 104.394 18.2188L105.76 19.5853C105.346 20.0704 104.837 20.4372 104.234 20.6856C103.642 20.9341 102.998 21.0583 102.3 21.0583ZM112.558 21.0583C111.943 21.0583 111.386 20.9341 110.89 20.6856C110.393 20.4253 109.996 20.0763 109.7 19.6385C109.405 19.2008 109.245 18.6979 109.221 18.13V15.0952C109.245 14.5273 109.405 14.0245 109.7 13.5867C110.008 13.1371 110.404 12.7821 110.89 12.5219C111.386 12.2616 111.943 12.1314 112.558 12.1314C113.35 12.1314 114.06 12.3266 114.687 12.7171C115.315 13.1075 115.806 13.6399 116.16 14.3143C116.527 14.9887 116.711 15.7519 116.711 16.6037C116.711 17.4438 116.527 18.201 116.16 18.8754C115.806 19.5498 115.315 20.0822 114.687 20.4727C114.06 20.8631 113.35 21.0583 112.558 21.0583ZM112.15 18.9109C112.576 18.9109 112.954 18.8162 113.285 18.6269C113.617 18.4258 113.871 18.1537 114.049 17.8106C114.238 17.4556 114.333 17.0474 114.333 16.586C114.333 16.1364 114.238 15.74 114.049 15.3969C113.871 15.042 113.617 14.7699 113.285 14.5805C112.954 14.3794 112.576 14.2788 112.15 14.2788C111.735 14.2788 111.363 14.3794 111.031 14.5805C110.7 14.7699 110.44 15.042 110.251 15.3969C110.073 15.74 109.984 16.1364 109.984 16.586C109.984 17.0474 110.073 17.4556 110.251 17.8106C110.44 18.1537 110.694 18.4258 111.014 18.6269C111.345 18.8162 111.724 18.9109 112.15 18.9109ZM107.801 24.4658V12.3089H110.126V14.5628L109.736 16.6392L110.109 18.7157V24.4658H107.801Z" fill="#37474F"/>
<defs>
<clipPath id="clip0_893_10977">
<rect width="26.621" height="26.621" fill="white" transform="translate(0.790527 1.07034)"/>
</clipPath>
</defs>
</svg>
