<svg width="24" height="24" viewBox="0 0 24 24" fill="none" xmlns="http://www.w3.org/2000/svg">
<path fill-rule="evenodd" clip-rule="evenodd" d="M12.0001 9.33334C12.7334 9.33334 13.3334 8.73334 13.3334 8.00001C13.3334 7.26667 12.7334 6.66667 12.0001 6.66667C11.2667 6.66667 10.6667 7.26667 10.6667 8.00001C10.6667 8.73334 11.2667 9.33334 12.0001 9.33334ZM12.0001 10.6667C11.2667 10.6667 10.6667 11.2667 10.6667 12C10.6667 12.7333 11.2667 13.3333 12.0001 13.3333C12.7334 13.3333 13.3334 12.7333 13.3334 12C13.3334 11.2667 12.7334 10.6667 12.0001 10.6667ZM10.6667 16C10.6667 15.2667 11.2667 14.6667 12.0001 14.6667C12.7334 14.6667 13.3334 15.2667 13.3334 16C13.3334 16.7333 12.7334 17.3333 12.0001 17.3333C11.2667 17.3333 10.6667 16.7333 10.6667 16Z" fill="#252525" fill-opacity="0.6"/>
</svg>
