<svg width="195" height="45" viewBox="0 0 195 45" fill="none" xmlns="http://www.w3.org/2000/svg">
<g clip-path="url(#clip0_1527_13734)">
<rect y="0.34248" width="44.315" height="44.315" rx="9.04765" fill="#0066FF"/>
<path d="M22.1459 11.3602C22.822 11.3602 23.3701 10.8121 23.3701 10.136C23.3701 9.45987 22.822 8.91178 22.1459 8.91178C21.4698 8.91178 20.9217 9.45987 20.9217 10.136C20.9217 10.8121 21.4698 11.3602 22.1459 11.3602Z" fill="white"/>
<path d="M31.919 37.7486C31.9241 37.8012 31.912 37.8541 31.8846 37.8993C31.8573 37.9446 31.816 37.9798 31.767 37.9997C31.718 38.0196 31.6639 38.0232 31.6127 38.0099C31.5615 37.9966 31.516 37.9672 31.4829 37.9259C25.1773 29.9004 19.8298 27.3124 12.9165 37.7137C12.883 37.7657 12.8332 37.8053 12.7749 37.8261C12.7165 37.8469 12.653 37.8478 12.5941 37.8288C12.5352 37.8097 12.4842 37.7716 12.4492 37.7206C12.4141 37.6695 12.397 37.6083 12.4004 37.5465C12.4004 37.5465 13.9473 12.1933 14.2555 7.2151C14.2592 7.16241 14.2798 7.11233 14.3143 7.07235C14.3488 7.03238 14.3954 7.00467 14.4469 6.99337C14.4985 6.98207 14.5524 6.98779 14.6004 7.00968C14.6485 7.03157 14.6882 7.06843 14.7135 7.11477C15.6615 8.87836 18.0255 13.2212 19.5885 14.4323C20.7196 15.3046 22.4963 16.5942 24.7687 14.2869C26.7519 12.2674 27.2913 10.8062 28.2421 7.82573C28.2568 7.78031 28.2865 7.74127 28.3264 7.71507C28.3663 7.68887 28.4139 7.67707 28.4614 7.68165C28.5089 7.68623 28.5535 7.70691 28.5876 7.74026C28.6218 7.7736 28.6435 7.81761 28.6492 7.86499C29.2177 13.0278 31.5148 34.172 31.919 37.7486Z" fill="white"/>
</g>
<path d="M61.2139 33V12.231H64.05L72.4699 25.7028H70.845L79.2353 12.231H82.0715V33H78.0831V19.1146L78.8512 19.351L73.0017 28.7458H70.2837L64.4341 19.351L65.2317 19.1146V33H61.2139ZM91.8683 33.2954C90.5684 33.2954 89.3965 32.9705 88.3527 32.3205C87.3088 31.6705 86.4914 30.7842 85.9006 29.6616C85.3097 28.539 85.0143 27.2784 85.0143 25.88C85.0143 24.462 85.3097 23.1916 85.9006 22.069C86.4914 20.9463 87.3088 20.06 88.3527 19.4101C89.3965 18.7601 90.5684 18.4351 91.8683 18.4351C92.8925 18.4351 93.8083 18.6419 94.6159 19.0555C95.4234 19.4691 96.0635 20.0502 96.5362 20.7986C97.0286 21.5273 97.2945 22.3545 97.3338 23.2802V28.4208C97.2945 29.3662 97.0286 30.2032 96.5362 30.932C96.0635 31.6607 95.4234 32.2417 94.6159 32.675C93.8083 33.0886 92.8925 33.2954 91.8683 33.2954ZM92.5774 29.7207C93.6606 29.7207 94.5371 29.3662 95.2067 28.6571C95.8764 27.9284 96.2112 26.9928 96.2112 25.8505C96.2112 25.1021 96.0536 24.4423 95.7385 23.8711C95.4431 23.2802 95.0196 22.8272 94.4681 22.5121C93.9364 22.1773 93.3061 22.0099 92.5774 22.0099C91.8683 22.0099 91.2381 22.1773 90.6866 22.5121C90.1548 22.8272 89.7313 23.2802 89.4162 23.8711C89.1208 24.4423 88.9731 25.1021 88.9731 25.8505C88.9731 26.6186 89.1208 27.2981 89.4162 27.889C89.7313 28.4602 90.1548 28.9132 90.6866 29.248C91.2381 29.5631 91.8683 29.7207 92.5774 29.7207ZM96.0044 33V29.1594L96.6248 25.6732L96.0044 22.2462V18.7306H99.845V33H96.0044ZM112.368 33L106.844 25.6437L112.339 18.7306H116.8L110.359 26.53L110.507 24.6392L117.095 33H112.368ZM103.269 33V11.6401H107.139V33H103.269ZM125.038 33.2954C123.541 33.2954 122.212 32.9803 121.05 32.35C119.888 31.7001 118.962 30.8138 118.273 29.6911C117.603 28.5685 117.268 27.2883 117.268 25.8505C117.268 24.4324 117.593 23.1719 118.243 22.069C118.913 20.9463 119.819 20.06 120.961 19.4101C122.103 18.7404 123.374 18.4056 124.772 18.4056C126.151 18.4056 127.362 18.7207 128.406 19.351C129.47 19.9615 130.297 20.8084 130.888 21.8917C131.498 22.9553 131.804 24.1665 131.804 25.5255C131.804 25.7816 131.784 26.0475 131.744 26.3232C131.725 26.5792 131.676 26.8747 131.597 27.2095L119.602 27.239V24.3438L129.795 24.3143L128.229 25.5255C128.189 24.6786 128.032 23.9696 127.756 23.3984C127.5 22.8272 127.116 22.3939 126.604 22.0985C126.112 21.7834 125.501 21.6258 124.772 21.6258C124.004 21.6258 123.334 21.8031 122.763 22.1576C122.192 22.4924 121.749 22.975 121.434 23.6052C121.138 24.2158 120.991 24.9445 120.991 25.7914C120.991 26.658 121.148 27.4163 121.463 28.0663C121.798 28.6965 122.271 29.1889 122.881 29.5434C123.492 29.8783 124.201 30.0457 125.009 30.0457C125.737 30.0457 126.397 29.9275 126.988 29.6911C127.579 29.4351 128.091 29.0609 128.524 28.5685L130.799 30.8433C130.11 31.6509 129.263 32.2614 128.258 32.675C127.274 33.0886 126.2 33.2954 125.038 33.2954ZM140.637 33.2954C138.963 33.2954 137.526 33.0098 136.324 32.4387C135.142 31.8675 134.069 31.0107 133.104 29.8684L135.763 27.2095C136.373 28.017 137.082 28.6473 137.89 29.1003C138.697 29.5336 139.682 29.7502 140.844 29.7502C141.888 29.7502 142.715 29.5434 143.326 29.1298C143.956 28.7162 144.271 28.145 144.271 27.4163C144.271 26.786 144.094 26.274 143.74 25.88C143.385 25.4861 142.912 25.1513 142.321 24.8756C141.75 24.5998 141.11 24.3536 140.401 24.137C139.712 23.9006 139.013 23.6348 138.304 23.3393C137.614 23.0439 136.974 22.6795 136.383 22.2462C135.812 21.7932 135.349 21.222 134.995 20.5327C134.64 19.8237 134.463 18.9374 134.463 17.8738C134.463 16.6133 134.768 15.5399 135.379 14.6536C135.989 13.7673 136.826 13.0878 137.89 12.6151C138.954 12.1424 140.155 11.906 141.494 11.906C142.912 11.906 144.193 12.1719 145.335 12.7037C146.477 13.2355 147.413 13.9248 148.141 14.7717L145.483 17.4306C144.872 16.761 144.242 16.2686 143.592 15.9535C142.962 15.6384 142.243 15.4808 141.435 15.4808C140.509 15.4808 139.781 15.658 139.249 16.0126C138.717 16.3671 138.451 16.8792 138.451 17.5488C138.451 18.12 138.629 18.5828 138.983 18.9374C139.338 19.2919 139.8 19.5972 140.372 19.8532C140.962 20.1092 141.603 20.3554 142.292 20.5918C143.001 20.8281 143.7 21.094 144.389 21.3895C145.099 21.6849 145.739 22.069 146.31 22.5417C146.901 23.0143 147.373 23.6249 147.728 24.3733C148.082 25.1021 148.26 26.0081 148.26 27.0913C148.26 29.0215 147.58 30.5381 146.221 31.641C144.862 32.744 143.001 33.2954 140.637 33.2954ZM153.115 33V12.7923H156.985V33H153.115ZM149.776 22.128V18.7306H160.323V22.128H149.776ZM168.978 33.2954C167.481 33.2954 166.152 32.9803 164.99 32.35C163.828 31.7001 162.902 30.8138 162.213 29.6911C161.543 28.5685 161.208 27.2883 161.208 25.8505C161.208 24.4324 161.533 23.1719 162.183 22.069C162.853 20.9463 163.759 20.06 164.901 19.4101C166.043 18.7404 167.314 18.4056 168.712 18.4056C170.091 18.4056 171.302 18.7207 172.346 19.351C173.41 19.9615 174.237 20.8084 174.828 21.8917C175.438 22.9553 175.744 24.1665 175.744 25.5255C175.744 25.7816 175.724 26.0475 175.684 26.3232C175.665 26.5792 175.616 26.8747 175.537 27.2095L163.542 27.239V24.3438L173.735 24.3143L172.169 25.5255C172.129 24.6786 171.972 23.9696 171.696 23.3984C171.44 22.8272 171.056 22.3939 170.544 22.0985C170.052 21.7834 169.441 21.6258 168.712 21.6258C167.944 21.6258 167.274 21.8031 166.703 22.1576C166.132 22.4924 165.689 22.975 165.374 23.6052C165.078 24.2158 164.931 24.9445 164.931 25.7914C164.931 26.658 165.088 27.4163 165.403 28.0663C165.738 28.6965 166.211 29.1889 166.821 29.5434C167.432 29.8783 168.141 30.0457 168.949 30.0457C169.677 30.0457 170.337 29.9275 170.928 29.6911C171.519 29.4351 172.031 29.0609 172.464 28.5685L174.739 30.8433C174.05 31.6509 173.203 32.2614 172.198 32.675C171.214 33.0886 170.14 33.2954 168.978 33.2954ZM186.055 33.2954C185.03 33.2954 184.105 33.0886 183.278 32.675C182.45 32.2417 181.791 31.6607 181.298 30.932C180.806 30.2032 180.54 29.3662 180.5 28.4208V23.3689C180.54 22.4235 180.806 21.5864 181.298 20.8577C181.81 20.1092 182.47 19.5184 183.278 19.0851C184.105 18.6518 185.03 18.4351 186.055 18.4351C187.374 18.4351 188.556 18.7601 189.6 19.4101C190.644 20.06 191.461 20.9463 192.052 22.069C192.662 23.1916 192.968 24.462 192.968 25.88C192.968 27.2784 192.662 28.539 192.052 29.6616C191.461 30.7842 190.644 31.6705 189.6 32.3205C188.556 32.9705 187.374 33.2954 186.055 33.2954ZM185.375 29.7207C186.084 29.7207 186.714 29.5631 187.266 29.248C187.817 28.9132 188.241 28.4602 188.536 27.889C188.851 27.2981 189.009 26.6186 189.009 25.8505C189.009 25.1021 188.851 24.4423 188.536 23.8711C188.241 23.2802 187.817 22.8272 187.266 22.5121C186.714 22.1773 186.084 22.0099 185.375 22.0099C184.686 22.0099 184.065 22.1773 183.514 22.5121C182.962 22.8272 182.529 23.2802 182.214 23.8711C181.919 24.4423 181.771 25.1021 181.771 25.8505C181.771 26.6186 181.919 27.2981 182.214 27.889C182.529 28.4602 182.953 28.9132 183.484 29.248C184.036 29.5631 184.666 29.7207 185.375 29.7207ZM178.137 38.9678V18.7306H182.007V22.4826L181.357 25.9391L181.978 29.3957V38.9678H178.137Z" fill="#37474F"/>
<defs>
<clipPath id="clip0_1527_13734">
<rect width="44.315" height="44.315" fill="white" transform="translate(0 0.34248)"/>
</clipPath>
</defs>
</svg>
